<svg 
 xmlns="http://www.w3.org/2000/svg"
 xmlns:xlink="http://www.w3.org/1999/xlink"
 width="39px" height="31px">
<path fill-rule="evenodd"  fill="rgb(255, 0, 54)"
 d="M26.527,0.000 C29.626,-0.053 31.276,1.053 32.851,2.459 C34.189,2.347 35.927,1.615 36.950,1.106 C37.282,0.928 37.614,0.750 37.946,0.572 C37.361,2.120 36.568,3.330 35.350,4.250 C35.079,4.455 34.811,4.731 34.471,4.861 C34.471,4.867 34.471,4.874 34.471,4.880 C36.208,4.862 37.640,4.095 39.000,3.679 C39.000,3.685 39.000,3.691 39.000,3.698 C38.286,4.811 37.319,5.939 36.287,6.748 C35.870,7.072 35.454,7.396 35.038,7.720 C35.060,9.521 35.010,11.239 34.667,12.752 C32.668,21.549 27.374,27.521 18.992,30.080 C15.983,30.998 11.119,31.376 7.671,30.537 C5.961,30.121 4.417,29.652 2.967,29.031 C2.162,28.686 1.416,28.313 0.703,27.887 C0.468,27.748 0.234,27.607 -0.000,27.468 C0.778,27.491 1.688,27.700 2.557,27.564 C3.344,27.439 4.115,27.472 4.841,27.316 C6.651,26.926 8.258,26.412 9.643,25.619 C10.314,25.235 11.332,24.783 11.809,24.228 C10.910,24.243 10.096,24.039 9.428,23.808 C6.840,22.914 5.333,21.268 4.353,18.795 C5.137,18.879 7.397,19.079 7.925,18.643 C6.937,18.589 5.988,18.029 5.309,17.612 C3.227,16.337 1.529,14.197 1.542,10.903 C1.815,11.031 2.089,11.158 2.362,11.284 C2.885,11.500 3.417,11.616 4.041,11.742 C4.304,11.796 4.831,11.947 5.134,11.837 C5.121,11.837 5.108,11.837 5.095,11.837 C4.692,11.378 4.035,11.072 3.631,10.580 C2.295,8.953 1.043,6.450 1.835,3.470 C2.036,2.713 2.354,2.046 2.694,1.430 C2.707,1.436 2.720,1.443 2.733,1.448 C2.888,1.768 3.235,2.002 3.455,2.269 C4.137,3.097 4.979,3.842 5.836,4.499 C8.758,6.737 11.389,8.112 15.616,9.131 C16.688,9.388 17.927,9.586 19.207,9.588 C18.847,8.562 18.963,6.903 19.246,5.910 C19.958,3.412 21.505,1.613 23.775,0.648 C24.317,0.418 24.919,0.250 25.551,0.115 C25.876,0.076 26.202,0.039 26.527,0.000 Z"/>
</svg>